# xmcd
#
# Track frame offsets:
#       182
#       6552
#       28670
#       45482
#       67340
#       84620
#       100120
#       130247
#       151437
#       174790
#       193655
#       209827
#       228897
#       246135
#       249022
#
# Disc length: 3600 seconds
#
# Revision: 3
# Processed by: cddbd v1.5.2PL0 Copyright (c) Steve Scherf et al.
# Submitted via: FreeDbEdit v0.1
#
DISCID=c70e0e0f
DTITLE=Various Artist - The Civil War - The Nashville Sessions
DYEAR=1998
DGENRE=Country
TTITLE0=Charlie Daniels - Prologue
TTITLE1=Travis Tritt - The Day the Sun Stood Still
TTITLE2=Deana Carter - Missing You (My Bill)
TTITLE3=Gene Miller - Virginia
TTITLE4=Trace Adkins - Old Gray Coat
TTITLE5=Tracy Lawrence - I'll Never Pass This Way Again
TTITLE6=Bebe Winans - River Jordan
TTITLE7=Bryan White and Amy Grant - With These Hands
TTITLE8=Shiloh - Judgement Day
TTITLE9=Kevin Sharp - Tell My Father
TTITLE10=Linda Eder - I Never Knew His Name
TTITLE11=Michael English - Regimental Drummer
TTITLE12=Trisha Yearwood - The Honor of Your Name
TTITLE13=Charlie Daniels - In Great Deeds
TTITLE14=John Berry - Last Waltz for Dixie
EXTD=YEAR: 1998 ID3G: 2
EXTT0=
EXTT1=
EXTT2=
EXTT3=
EXTT4=
EXTT5=
EXTT6=
EXTT7=
EXTT8=
EXTT9=
EXTT10=
EXTT11=
EXTT12=
EXTT13=
EXTT14=
PLAYORDER=
